<?xml version="1.0" standalone="no"?>
<!DOCTYPE svg PUBLIC "-//W3C//DTD SVG 20010904//EN"
 "http://www.w3.org/TR/2001/REC-SVG-20010904/DTD/svg10.dtd">
<svg version="1.0" xmlns="http://www.w3.org/2000/svg"
 width="1464.000000pt" height="1302.000000pt" viewBox="0 0 1464.000000 1302.000000"
 preserveAspectRatio="xMidYMid meet">

<g transform="translate(0.000000,1302.000000) scale(0.100000,-0.100000)"
fill="#000000" stroke="none">
<path d="M5335 12566 c-22 -7 -55 -21 -74 -30 -40 -21 -1425 -1099 -1459
-1136 -13 -14 -38 -54 -55 -90 l-32 -65 1 -300 c0 -277 2 -306 22 -379 29
-103 78 -216 127 -291 51 -79 195 -223 269 -270 l59 -37 -34 -27 c-194 -151
-574 -521 -744 -726 -133 -159 -254 -321 -358 -480 -47 -71 -92 -138 -99 -148
-11 -15 -37 -19 -153 -27 -283 -19 -510 -76 -744 -186 -430 -203 -723 -564
-796 -982 -19 -112 -19 -305 0 -418 53 -303 201 -562 530 -926 63 -69 115
-128 115 -131 0 -2 -21 0 -47 5 -80 16 -289 13 -386 -6 -362 -69 -664 -293
-830 -614 -65 -126 -98 -219 -128 -362 -32 -150 -33 -438 -1 -587 59 -275 161
-463 349 -644 171 -164 383 -276 651 -343 355 -90 810 -85 1179 12 l71 19 63
-116 c177 -327 372 -616 609 -901 131 -157 499 -526 650 -651 799 -662 1712
-1061 2720 -1188 455 -58 979 -53 1435 15 374 55 787 166 1160 311 198 77 632
295 817 410 283 176 529 361 787 592 l123 111 187 0 186 1 -91 24 c-51 13
-118 36 -150 52 -69 33 -70 34 -30 165 l27 86 44 -25 c67 -37 202 -80 295 -94
173 -25 323 8 414 92 71 65 99 129 99 229 1 174 -91 271 -361 380 -270 109
-398 203 -469 347 -35 70 -38 84 -41 178 -6 163 35 274 142 381 72 72 195 137
301 159 162 34 431 10 561 -49 46 -21 54 -29 49 -45 -41 -130 -64 -186 -76
-184 -8 1 -41 13 -74 27 -188 78 -422 71 -537 -17 -66 -51 -102 -116 -106
-196 -10 -174 72 -262 350 -377 292 -121 407 -207 479 -359 68 -143 64 -321
-8 -473 -38 -79 -149 -188 -234 -231 -37 -18 -97 -41 -135 -51 l-69 -19 276 0
275 -1 52 26 c112 56 132 114 132 386 l0 198 29 0 c66 0 130 45 162 115 16 35
19 67 19 260 0 131 -5 236 -11 260 -15 52 -82 119 -134 134 -24 7 -136 11
-284 11 -191 0 -242 3 -238 13 3 6 37 80 75 162 313 675 482 1423 482 2133 0
111 3 202 8 202 4 0 20 -26 37 -57 41 -78 132 -173 198 -207 84 -42 151 -56
273 -56 132 0 231 22 343 77 97 48 231 177 285 274 106 193 131 407 70 618
-40 137 -86 214 -188 317 -76 76 -105 98 -176 132 -115 54 -194 72 -322 72
-97 0 -223 -17 -272 -36 -16 -6 -18 -4 -14 14 l6 22 -197 0 -198 0 -33 128
c-161 627 -515 1346 -909 1850 l-81 103 0 359 0 360 64 0 c35 0 102 7 149 15
417 73 729 406 776 828 6 53 11 189 11 301 0 235 -12 294 -78 381 -47 61
-1421 1135 -1502 1174 l-55 26 -2770 2 c-2214 1 -2778 -1 -2810 -11z m670
-513 c-70 -76 -276 -301 -458 -500 l-332 -363 -525 0 c-452 0 -522 2 -510 14
8 8 296 233 639 500 l625 486 343 0 344 0 -126 -137z m880 75 c-19 -35 -142
-259 -274 -498 l-240 -435 -531 -3 c-319 -1 -530 1 -528 7 1 5 206 230 453
500 l450 491 352 0 353 0 -35 -62z m815 51 c0 -11 -165 -922 -175 -966 l-5
-23 -535 0 c-294 0 -535 3 -535 8 0 6 77 147 447 820 l94 172 355 0 c250 0
354 -3 354 -11z m790 1 c0 -10 163 -903 176 -962 l6 -28 -541 0 c-489 0 -541
2 -541 16 0 18 168 939 176 967 5 16 31 17 365 17 243 0 359 -3 359 -10z
m1045 -482 c149 -271 272 -496 273 -500 5 -10 -1065 -11 -1072 0 -2 4 -43 219
-90 477 -47 259 -88 480 -91 493 l-5 22 357 0 358 -1 270 -491z m935 21 c238
-258 443 -483 457 -500 l25 -29 -534 0 -533 0 -270 491 c-148 269 -271 494
-273 500 -2 5 133 9 346 9 l350 0 432 -471z m977 -22 c347 -271 635 -495 639
-499 4 -5 -229 -8 -519 -8 l-525 0 -438 478 c-240 262 -446 487 -457 500 l-20
22 344 0 344 -1 632 -492z m-6247 -754 c0 -214 -13 -293 -62 -393 -41 -85
-151 -196 -235 -239 -315 -158 -688 9 -778 349 -11 40 -15 113 -15 263 l0 207
545 0 545 0 0 -187z m1158 -35 c-4 -209 -6 -227 -29 -289 -35 -91 -68 -145
-125 -203 -70 -70 -139 -113 -227 -141 -189 -60 -397 -13 -539 122 -72 69
-112 132 -146 225 -24 68 -26 88 -30 291 l-4 217 552 0 552 0 -4 -222z m1160
-120 c-3 -338 -3 -344 -27 -388 -30 -58 -66 -97 -116 -123 -39 -21 -50 -22
-405 -22 -356 0 -366 1 -406 22 -48 26 -97 79 -121 131 -15 32 -18 82 -21 380
l-3 342 551 0 551 0 -3 -342z m1152 122 c0 -197 -2 -227 -21 -283 -29 -87 -78
-164 -147 -229 -259 -248 -689 -176 -857 143 -53 101 -65 172 -65 397 l0 192
545 0 545 0 0 -220z m1160 20 c0 -109 -5 -223 -11 -252 -19 -92 -77 -196 -149
-268 -217 -217 -564 -213 -774 10 -125 132 -156 236 -156 523 l0 187 545 0
545 0 0 -200z m1160 -142 c0 -340 0 -343 -24 -393 -28 -60 -66 -97 -126 -124
-42 -19 -65 -21 -396 -21 l-352 0 -53 28 c-60 31 -113 93 -129 150 -6 22 -10
171 -10 370 l0 332 545 0 545 0 0 -342z m1160 145 c0 -227 -11 -288 -67 -395
-90 -173 -282 -288 -478 -288 -228 0 -429 142 -516 365 -21 55 -23 79 -27 288
l-4 227 546 0 546 0 0 -197z m-3306 -555 c66 -69 156 -129 239 -158 87 -31
267 -39 357 -15 141 36 273 131 352 251 l43 65 6 -53 c12 -106 76 -199 171
-250 42 -23 49 -23 421 -26 l378 -3 53 24 c107 49 175 141 185 251 l6 61 31
-50 c17 -27 52 -73 78 -101 l46 -52 0 -1511 0 -1511 -355 0 -355 0 -2 1173 -3
1172 -22 41 c-29 54 -93 110 -140 123 -25 7 -261 11 -689 11 l-650 0 -51 -25
c-55 -28 -99 -77 -119 -134 -10 -29 -13 -279 -14 -1198 l0 -1163 -1885 0
-1885 0 0 1515 c0 1514 0 1515 20 1527 32 20 104 116 139 187 l33 64 36 -74
c72 -145 230 -272 388 -313 79 -20 232 -21 308 -1 137 36 280 139 356 257 l37
57 6 -51 c9 -73 50 -150 108 -202 83 -75 92 -76 503 -76 l361 0 60 28 c101 48
166 138 181 249 l6 52 38 -57 c78 -121 215 -220 355 -257 77 -20 230 -19 309
1 176 45 349 197 407 357 l13 37 43 -83 c24 -47 67 -108 97 -139z m1334 -1639
c124 -60 132 -238 14 -311 -55 -34 -135 -32 -191 5 -71 47 -98 136 -66 214 21
50 42 72 90 94 53 24 99 24 153 -2z m-5160 -1854 c60 -18 119 -66 138 -112 8
-18 14 -61 14 -95 0 -79 -27 -131 -90 -173 l-45 -30 33 -29 c45 -39 57 -65 91
-202 16 -65 32 -127 36 -136 6 -16 1 -18 -49 -18 l-55 0 -20 68 c-10 37 -27
98 -36 135 -29 114 -73 147 -197 147 l-58 0 0 -175 0 -175 -50 0 -50 0 0 399
0 400 33 4 c88 11 256 6 305 -8z m801 4 c28 -6 53 -15 56 -20 3 -5 0 -27 -6
-49 -10 -34 -15 -39 -33 -34 -176 57 -335 10 -410 -119 -47 -81 -57 -214 -24
-309 39 -110 131 -177 257 -186 61 -4 137 6 183 23 13 5 19 -2 28 -35 6 -23
10 -44 8 -46 -2 -2 -33 -11 -68 -20 -89 -23 -234 -15 -315 16 -82 32 -163 113
-195 195 -46 119 -37 283 21 396 22 45 100 124 143 146 94 50 240 67 355 42z
m1299 -4 c79 -19 113 -36 169 -88 95 -88 135 -242 102 -399 -35 -165 -139
-268 -308 -304 -66 -14 -295 -19 -325 -8 -14 5 -16 50 -16 404 l0 399 38 4
c98 10 281 6 340 -8z m2699 0 c157 -47 253 -195 253 -389 0 -185 -75 -317
-219 -385 -49 -23 -69 -26 -156 -26 -87 0 -107 3 -155 26 -144 68 -217 209
-207 398 10 196 100 327 260 376 57 18 163 18 224 0z m-6441 -210 c41 -115 90
-262 108 -325 l34 -115 12 45 c24 88 58 189 135 398 l78 212 69 0 c37 0 68 -3
68 -7 0 -5 11 -181 25 -393 14 -212 25 -388 25 -392 0 -5 -25 -8 -55 -8 l-55
0 0 38 c0 20 -7 154 -15 297 -8 143 -15 278 -15 300 0 33 -11 10 -55 -120 -30
-88 -83 -239 -118 -335 l-64 -175 -43 0 -43 0 -74 220 c-41 121 -89 269 -107
330 l-34 109 -5 -64 c-4 -36 -11 -162 -17 -280 -6 -118 -13 -239 -16 -267 l-6
-53 -49 0 c-44 0 -49 2 -49 23 0 12 11 177 25 367 14 190 25 360 25 378 l0 33
71 -3 71 -3 74 -210z m1144 170 l0 -45 -165 0 -165 0 0 -125 0 -125 161 0 160
0 -3 -42 -3 -43 -157 -3 -158 -3 0 -139 0 -140 175 0 175 0 0 -45 0 -45 -225
0 -225 0 0 400 0 400 215 0 215 0 0 -45z m1845 -2 c43 -123 255 -747 255 -750
0 -2 -26 -3 -57 -1 l-58 3 -41 120 -42 120 -140 3 -140 3 -42 -126 -42 -125
-54 0 c-30 0 -54 2 -54 4 0 3 247 735 265 784 3 8 26 12 69 12 l64 0 17 -47z
m1265 -353 l0 -400 -50 0 -50 0 0 400 0 400 50 0 50 0 0 -400z m440 188 c74
-117 162 -260 195 -318 l60 -105 -4 317 -3 318 51 0 51 0 0 -400 0 -400 -54 0
-54 0 -148 238 c-82 130 -171 278 -199 327 l-50 91 3 -328 4 -328 -51 0 -51 0
0 400 0 400 58 0 58 0 134 -212z m630 47 l0 -165 195 0 195 0 0 165 0 165 55
0 55 0 0 -400 0 -400 -55 0 -55 0 0 190 0 190 -195 0 -195 0 0 -190 0 -190
-50 0 -50 0 0 400 0 400 50 0 50 0 0 -165z m2470 -750 c100 -26 237 -97 315
-162 211 -177 325 -455 325 -792 0 -402 -142 -708 -410 -886 -268 -178 -647
-191 -929 -32 -88 49 -219 174 -276 262 -100 152 -154 339 -162 555 -13 347
73 611 267 814 132 138 278 218 465 255 76 15 328 6 405 -14z m-8655 -482
c207 -587 279 -807 345 -1063 l12 -44 43 149 c60 206 126 395 320 925 92 250
172 467 177 483 l10 27 163 0 163 0 6 -62 c15 -157 117 -1861 112 -1874 -4
-11 -31 -14 -125 -14 l-120 0 -5 43 c-10 76 -62 1104 -73 1417 -4 124 -9 216
-11 205 -25 -117 -564 -1632 -586 -1647 -6 -4 -50 -8 -98 -8 -73 0 -89 3 -97
18 -21 40 -426 1263 -475 1437 l-54 190 -6 -95 c-3 -52 -10 -205 -16 -340 -14
-316 -69 -1200 -76 -1211 -7 -12 -231 -12 -238 -1 -3 5 6 164 19 353 49 674
84 1177 95 1369 7 107 14 201 16 208 2 9 45 12 167 12 l164 0 168 -477z m2785
367 l0 -110 -400 0 -400 0 0 -300 0 -300 380 0 380 0 0 -105 0 -105 -380 0
-380 0 0 -350 0 -350 425 0 426 0 -3 -107 -3 -108 -547 -3 -548 -2 0 975 0
975 525 0 525 0 0 -110z m942 -357 c468 -739 479 -758 600 -993 l70 -135 -7
55 c-3 30 -8 389 -11 798 l-6 742 121 0 121 0 -2 -972 -3 -973 -126 -3 -127
-3 -190 303 c-531 847 -685 1105 -768 1281 l-24 52 8 -195 c4 -107 7 -474 7
-815 l0 -620 -120 0 -120 0 0 965 c0 531 1 968 3 973 2 4 65 7 140 7 l138 0
296 -467z m1572 -508 l1 -970 -127 -3 -128 -3 0 976 0 976 127 -3 126 -3 1
-970z m1044 453 c381 -603 453 -722 558 -924 l76 -147 -6 59 c-3 32 -9 391
-12 797 l-6 737 121 0 121 0 0 -975 0 -975 -128 0 -129 0 -335 538 c-428 685
-464 744 -564 937 l-84 160 8 -135 c4 -74 7 -441 7 -815 l0 -680 -117 -3 -118
-3 0 976 0 975 138 0 139 0 331 -522z m-1963 -1509 c361 -53 601 -221 724
-509 63 -145 91 -353 72 -534 -29 -287 -118 -487 -290 -648 -93 -87 -198 -150
-329 -194 -174 -60 -253 -69 -572 -69 -157 0 -311 4 -342 8 l-58 8 0 958 0
958 108 13 c241 29 521 33 687 9z m2175 -104 l0 -105 -400 0 -400 0 0 -305 0
-305 380 0 380 0 0 -105 0 -105 -380 0 -380 0 0 -350 0 -350 420 0 420 0 0
-105 0 -105 -545 0 -545 0 0 970 0 970 525 0 525 0 0 -105z m620 -492 c0 -636
5 -728 46 -852 32 -97 64 -149 125 -206 75 -70 143 -97 259 -103 145 -7 248
27 332 111 57 58 102 144 130 248 21 82 22 103 25 742 l4 657 130 0 130 0 -4
-672 c-3 -649 -4 -676 -24 -754 -45 -169 -105 -276 -208 -372 -76 -72 -176
-124 -294 -153 -73 -18 -106 -21 -235 -17 -135 4 -160 8 -236 34 -164 57 -270
152 -344 308 -90 187 -95 241 -96 999 l0 627 130 0 130 0 0 -597z"/>
<path d="M5652 9794 c-57 -28 -96 -69 -123 -129 -17 -38 -19 -86 -19 -820 0
-763 1 -781 21 -825 27 -60 64 -98 124 -126 l50 -24 1165 0 c1318 0 1205 -7
1287 83 75 82 73 55 73 892 0 854 4 815 -83 900 -32 31 -68 55 -93 63 -32 9
-312 12 -1196 12 l-1154 0 -52 -26z"/>
<path d="M4803 6814 c-23 -5 -23 -8 -23 -151 l0 -145 95 4 c75 3 100 8 122 24
50 38 68 71 67 127 0 63 -21 99 -72 123 -36 17 -146 27 -189 18z"/>
<path d="M6895 6811 l-50 -6 -3 -319 -2 -318 117 4 c104 3 124 7 169 31 63 32
118 94 139 155 51 152 14 324 -85 397 -62 46 -180 69 -285 56z"/>
<path d="M9593 6785 c-99 -50 -146 -146 -146 -295 0 -149 47 -245 146 -295
137 -68 284 -1 344 157 24 65 22 219 -4 284 -44 113 -126 174 -233 174 -40 0
-71 -7 -107 -25z"/>
<path d="M6277 6770 c-2 -8 -28 -87 -56 -176 -28 -89 -51 -164 -51 -168 0 -3
51 -6 114 -6 l115 0 -35 103 c-19 56 -46 138 -59 182 -13 44 -25 73 -28 65z"/>
<path d="M10805 5780 c-207 -44 -366 -197 -443 -425 -42 -125 -55 -214 -55
-370 1 -128 4 -164 27 -249 89 -340 299 -526 594 -526 154 0 277 52 388 165
87 88 151 208 191 360 23 89 26 119 26 265 0 146 -3 176 -25 261 -70 262 -207
430 -404 500 -66 23 -232 34 -299 19z"/>
<path d="M6445 3739 c-38 -5 -76 -11 -82 -14 -10 -3 -13 -165 -13 -764 l0
-760 46 -7 c25 -3 127 -4 227 -1 211 5 291 22 427 89 177 88 305 262 351 480
26 121 28 339 5 453 -35 170 -137 325 -270 410 -161 103 -428 147 -691 114z"/>
</g>
</svg>
